<?xml version="1.0" standalone="no"?>
<!DOCTYPE svg PUBLIC "-//W3C//DTD SVG 20010904//EN"
 "http://www.w3.org/TR/2001/REC-SVG-20010904/DTD/svg10.dtd">
<svg version="1.0" xmlns="http://www.w3.org/2000/svg"
 width="512.000000pt" height="512.000000pt" viewBox="0 0 512.000000 512.000000"
 preserveAspectRatio="xMidYMid meet">
<metadata>
Created by potrace 1.16, written by Peter Selinger 2001-2019
</metadata>
<g transform="translate(0.000000,512.000000) scale(0.100000,-0.100000)"
fill="#000000" stroke="none">
<path d="M2315 4825 c-444 -69 -842 -323 -1088 -692 l-62 -93 -378 0 c-243 0
-394 -4 -422 -11 -53 -13 -119 -67 -145 -120 -19 -36 -20 -60 -20 -427 0 -214
-3 -895 -7 -1515 l-6 -1126 -38 -6 c-49 -8 -97 -41 -127 -85 -22 -32 -23 -43
-20 -120 4 -68 10 -97 33 -143 33 -68 101 -134 176 -174 l54 -28 651 -3 c621
-2 651 -2 667 16 30 33 32 75 4 108 l-25 29 -629 5 c-561 4 -631 7 -658 22
-67 37 -118 116 -113 176 l3 37 2395 0 2395 0 3 -37 c5 -60 -46 -139 -113
-176 -27 -16 -155 -17 -1512 -22 l-1482 -5 -22 -21 c-29 -30 -29 -92 1 -116
22 -17 90 -18 1524 -16 l1501 3 60 31 c71 38 141 109 175 179 18 37 25 71 28
135 3 77 2 88 -20 120 -32 46 -80 78 -134 86 l-44 6 0 208 c0 196 -1 208 -20
225 -29 26 -85 25 -113 -3 -21 -22 -22 -31 -25 -227 l-3 -205 -2206 0 -2206 0
7 1498 7 1497 25 23 c25 22 27 22 360 22 184 0 334 -2 334 -4 0 -2 -18 -57
-39 -122 -22 -66 -47 -154 -55 -197 -23 -111 -38 -309 -30 -400 6 -67 10 -80
32 -97 31 -25 73 -26 103 -1 22 18 23 25 25 167 4 311 79 563 241 808 79 120
269 315 383 393 156 106 350 189 542 230 118 25 438 25 556 0 191 -41 387
-124 540 -229 42 -29 124 -99 183 -155 557 -538 595 -1394 86 -1985 -201 -234
-491 -402 -810 -470 -136 -29 -398 -31 -532 -4 -376 74 -689 271 -912 573 -65
88 -154 254 -198 371 -15 40 -35 77 -45 82 -55 29 -120 -8 -120 -69 0 -35 51
-173 98 -268 56 -110 170 -269 267 -371 l95 -100 0 -165 c0 -147 2 -167 19
-188 14 -18 29 -24 60 -24 66 0 75 17 81 145 l5 109 55 -36 c77 -49 240 -127
334 -158 448 -150 959 -92 1356 153 l65 40 5 -109 c6 -126 15 -144 81 -144 31
0 46 6 60 24 17 21 19 41 19 189 l0 165 79 83 c429 446 567 1074 365 1655 -19
54 -34 101 -34 104 0 3 153 4 340 3 338 -3 340 -3 362 -26 l23 -23 0 -1144 0
-1144 21 -22 c28 -27 89 -29 115 -3 17 18 18 70 21 1184 l3 1165 -22 40 c-11
22 -34 52 -50 66 -60 57 -57 56 -495 64 l-407 8 -35 56 c-55 90 -119 169 -219
269 -246 249 -551 404 -897 457 -115 18 -373 18 -485 0z"/>
<path d="M2403 4495 c-114 -57 -215 -171 -294 -329 l-39 -79 -142 2 c-213 3
-328 -31 -429 -126 -153 -143 -143 -386 26 -643 l54 -82 -40 -59 c-208 -307
-195 -589 33 -723 85 -50 179 -69 346 -71 l153 -2 38 -75 c79 -158 180 -271
296 -331 55 -29 68 -32 155 -32 87 0 100 3 155 32 116 60 217 173 297 332 l38
76 152 0 c165 1 215 10 313 56 86 40 139 89 176 164 35 71 34 114 -4 140 -52
37 -100 14 -141 -68 -43 -83 -143 -127 -313 -135 -92 -4 -114 -2 -118 9 -3 8
4 50 15 94 11 44 25 115 32 158 l12 78 65 53 c36 30 94 82 129 115 l62 62 39
-63 c54 -87 65 -98 106 -98 41 0 85 36 85 70 0 27 -32 90 -82 161 l-39 56 44
64 c99 143 141 263 142 404 0 119 -17 166 -91 245 -93 100 -225 141 -447 139
l-138 -1 -39 78 c-68 140 -156 246 -255 309 -71 45 -107 55 -200 55 -74 0 -89
-4 -152 -35z m243 -143 c43 -24 82 -58 130 -117 42 -50 104 -153 104 -171 0
-6 -37 -21 -82 -34 -46 -13 -117 -37 -158 -52 l-75 -28 -160 52 c-88 29 -162
54 -164 55 -7 5 27 71 65 128 41 63 121 143 166 166 43 24 133 24 174 1z
m-651 -505 c-13 -46 -28 -122 -36 -168 -12 -82 -14 -86 -55 -117 -23 -18 -81
-69 -129 -114 -68 -64 -89 -78 -96 -67 -137 208 -164 352 -83 449 59 70 148
98 310 99 l111 1 -22 -83z m1416 59 c96 -35 158 -115 159 -204 0 -77 -49 -200
-129 -321 -7 -11 -28 3 -96 67 -48 45 -106 96 -129 114 -41 31 -43 35 -55 117
-8 46 -24 123 -36 169 l-22 84 131 -5 c86 -3 147 -10 177 -21z m-1133 -32 c34
-9 62 -19 62 -23 0 -5 -167 -103 -202 -119 -6 -3 29 145 39 161 2 4 12 6 21 3
10 -3 45 -12 80 -22z m689 -63 c12 -45 19 -81 15 -79 -35 16 -202 114 -202
119 0 8 141 48 155 45 6 -1 20 -40 32 -85z m-267 -108 c166 -87 319 -191 327
-222 4 -14 7 -128 7 -253 0 -210 -1 -230 -19 -254 -38 -50 -406 -264 -455
-264 -49 0 -417 214 -455 264 -18 24 -19 44 -19 254 0 125 3 239 7 253 14 52
431 298 480 283 12 -3 69 -31 127 -61z m-775 -468 l0 -125 -65 65 -65 65 60
60 c33 33 62 60 65 60 3 0 5 -56 5 -125z m1340 65 l60 -60 -65 -65 -65 -65 0
125 c0 69 2 125 5 125 3 0 32 -27 65 -60z m-1369 -379 c50 -39 51 -41 62 -118
7 -43 21 -114 32 -158 11 -44 18 -86 15 -94 -8 -21 -212 -10 -287 17 -144 51
-192 144 -153 295 17 64 53 140 97 205 l29 43 77 -75 c42 -41 100 -93 128
-115z m382 -257 l73 -42 -58 -17 c-32 -9 -72 -19 -88 -22 -31 -5 -31 -5 -49
69 -11 40 -22 79 -24 87 -4 10 7 7 34 -9 21 -14 72 -44 112 -66z m689 -3 l-22
-83 -30 5 c-16 3 -56 13 -88 22 l-58 17 88 50 c48 28 97 57 107 64 11 7 21 12
22 11 2 -2 -7 -40 -19 -86z m-307 -171 c41 -15 104 -36 140 -45 36 -10 69 -21
73 -25 19 -17 -86 -183 -153 -244 -109 -99 -211 -99 -320 0 -62 56 -171 226
-156 242 4 3 54 20 114 38 59 18 127 42 152 53 25 11 52 17 60 14 8 -3 49 -18
90 -33z"/>
<path d="M2454 3514 c-54 -19 -118 -75 -151 -131 -22 -37 -28 -62 -31 -129 -4
-72 -1 -89 20 -136 51 -111 145 -172 268 -172 123 0 217 61 268 172 21 47 24
64 20 136 -3 67 -9 92 -31 129 -35 58 -97 112 -155 131 -56 20 -153 19 -208 0z
m167 -159 c63 -33 88 -124 52 -186 -17 -28 -84 -69 -113 -69 -29 0 -96 41
-113 69 -66 112 58 245 174 186z"/>
<path d="M609 2181 c-24 -19 -24 -22 -27 -237 -3 -233 1 -263 44 -283 38 -17
63 -13 89 14 l25 24 0 230 0 230 -26 20 c-33 26 -75 27 -105 2z"/>
<path d="M1025 2181 c-50 -22 -101 -79 -115 -129 -7 -22 -10 -84 -8 -149 3
-105 5 -114 33 -155 75 -105 222 -126 320 -46 60 50 75 94 75 226 0 124 -12
162 -67 214 -61 58 -161 74 -238 39z m127 -158 c15 -13 18 -31 18 -99 0 -74
-2 -84 -22 -98 -30 -21 -44 -20 -68 4 -27 27 -29 163 -3 192 20 22 51 23 75 1z"/>
<path d="M3920 2184 c-45 -20 -87 -59 -111 -106 -15 -30 -19 -58 -19 -150 0
-132 15 -176 75 -226 98 -80 245 -59 320 46 28 41 30 50 33 155 4 129 -6 172
-51 224 -59 68 -166 92 -247 57z m122 -161 c27 -25 26 -165 -2 -193 -24 -24
-38 -25 -68 -4 -20 13 -22 24 -22 96 0 62 4 86 17 100 20 22 51 23 75 1z"/>
<path d="M4406 2179 l-26 -20 0 -230 0 -230 25 -24 c26 -27 51 -31 89 -14 43
20 47 50 44 283 -3 215 -3 218 -27 237 -30 25 -72 24 -105 -2z"/>
<path d="M760 1530 c-52 -10 -94 -35 -129 -77 -78 -95 -67 -329 21 -410 75
-70 221 -70 296 0 62 57 90 201 63 321 -25 114 -136 187 -251 166z m84 -182
c11 -15 16 -45 16 -88 0 -78 -17 -110 -60 -110 -43 0 -60 32 -60 110 0 78 17
110 60 110 18 0 34 -8 44 -22z"/>
<path d="M1350 1530 c-70 -13 -120 -51 -156 -120 -15 -28 -19 -57 -19 -150 0
-104 2 -119 25 -160 72 -129 259 -150 353 -39 44 51 57 97 57 200 0 106 -13
151 -56 199 -54 59 -127 85 -204 70z m90 -190 c5 -10 10 -47 10 -82 0 -76 -18
-108 -60 -108 -42 0 -60 32 -60 108 0 71 11 99 43 111 26 10 52 -2 67 -29z"/>
<path d="M1885 1532 c-11 -2 -28 -11 -37 -20 -16 -14 -18 -39 -18 -249 0 -220
1 -234 20 -253 26 -26 80 -26 111 -1 24 19 24 20 24 249 0 208 -2 232 -18 250
-19 21 -50 30 -82 24z"/>
<path d="M2325 1532 c-11 -2 -28 -11 -37 -20 -16 -14 -18 -39 -18 -249 0 -220
1 -234 20 -253 26 -26 83 -27 109 -1 29 29 33 67 29 283 -3 172 -5 198 -21
216 -19 21 -50 30 -82 24z"/>
<path d="M2760 1530 c-70 -13 -120 -51 -156 -120 -15 -28 -19 -57 -19 -150 0
-108 2 -118 28 -163 75 -128 257 -146 352 -34 44 51 55 90 55 197 0 107 -12
152 -56 200 -54 59 -127 85 -204 70z m83 -178 c13 -12 17 -31 17 -86 0 -80
-17 -116 -54 -116 -45 0 -60 23 -64 98 -4 76 6 108 41 121 23 9 32 7 60 -17z"/>
<path d="M3235 1532 c-11 -2 -28 -11 -37 -20 -16 -14 -18 -39 -18 -249 0 -220
1 -234 20 -253 26 -26 83 -27 109 -1 28 28 33 82 29 293 -3 162 -5 188 -21
206 -19 21 -50 30 -82 24z"/>
<path d="M3682 1529 c-72 -13 -142 -77 -162 -147 -13 -50 -13 -195 2 -243 16
-55 70 -114 123 -134 104 -40 222 1 275 95 23 41 25 56 25 160 0 99 -3 121
-22 155 -49 91 -137 133 -241 114z m95 -185 c11 -18 14 -42 11 -95 -4 -76 -19
-99 -64 -99 -37 0 -54 36 -54 113 0 58 3 71 24 92 28 28 60 24 83 -11z"/>
<path d="M4280 1530 c-129 -24 -188 -123 -178 -301 9 -157 84 -239 218 -239
88 0 153 39 193 115 25 49 35 184 18 259 -25 114 -136 187 -251 166z m84 -182
c11 -15 16 -45 16 -88 0 -78 -17 -110 -60 -110 -43 0 -60 32 -60 110 0 78 17
110 60 110 18 0 34 -8 44 -22z"/>
</g>
</svg>
