<?xml version="1.0" encoding="UTF-8"?>
<!DOCTYPE svg PUBLIC "-//W3C//DTD SVG 1.1//EN" "http://www.w3.org/Graphics/SVG/1.1/DTD/svg11.dtd">
<svg xmlns="http://www.w3.org/2000/svg" version="1.1" width="551px" height="720px" style="shape-rendering:geometricPrecision; text-rendering:geometricPrecision; image-rendering:optimizeQuality; fill-rule:evenodd; clip-rule:evenodd" xmlns:xlink="http://www.w3.org/1999/xlink">
<g><path style="opacity:0.996" fill="#9fabb9" d="M 168.5,-0.5 C 168.833,-0.5 169.167,-0.5 169.5,-0.5C 169.833,0.833333 170.167,0.833333 170.5,-0.5C 247.167,-0.5 323.833,-0.5 400.5,-0.5C 402.138,1.95546 401.805,3.95546 399.5,5.5C 399.167,4.16667 398.833,4.16667 398.5,5.5C 397.833,5.5 397.5,5.83333 397.5,6.5C 396.833,6.5 396.5,6.83333 396.5,7.5C 395.833,7.5 395.5,7.83333 395.5,8.5C 394.833,8.5 394.5,8.83333 394.5,9.5C 393.833,9.5 393.5,9.83333 393.5,10.5C 392.833,10.5 392.5,10.8333 392.5,11.5C 391.833,11.5 391.5,11.8333 391.5,12.5C 390.833,12.5 390.5,12.8333 390.5,13.5C 389.833,13.5 389.5,13.8333 389.5,14.5C 388.833,14.5 388.5,14.8333 388.5,15.5C 387.833,15.5 387.5,15.8333 387.5,16.5C 386.833,16.5 386.5,16.8333 386.5,17.5C 385.833,17.5 385.5,17.8333 385.5,18.5C 384.833,18.5 384.5,18.8333 384.5,19.5C 383.833,19.5 383.5,19.8333 383.5,20.5C 382.833,20.5 382.5,20.8333 382.5,21.5C 381.833,21.5 381.5,21.8333 381.5,22.5C 380.833,22.5 380.5,22.8333 380.5,23.5C 379.833,23.5 379.5,23.8333 379.5,24.5C 378.833,24.5 378.5,24.8333 378.5,25.5C 377.833,25.5 377.5,25.8333 377.5,26.5C 376.833,26.5 376.5,26.8333 376.5,27.5C 375.833,27.5 375.5,27.8333 375.5,28.5C 374.833,28.5 374.5,28.8333 374.5,29.5C 373.833,29.5 373.5,29.8333 373.5,30.5C 372.833,30.5 372.5,30.8333 372.5,31.5C 371.167,31.8333 371.167,32.1667 372.5,32.5C 372.5,32.8333 372.5,33.1667 372.5,33.5C 371.167,90.5 371.167,147.5 372.5,204.5C 372.5,204.833 372.5,205.167 372.5,205.5C 371.167,205.833 371.167,206.167 372.5,206.5C 372.5,206.833 372.5,207.167 372.5,207.5C 372.5,208.167 372.833,208.5 373.5,208.5C 373.5,208.833 373.5,209.167 373.5,209.5C 373.833,212.167 374.167,212.167 374.5,209.5C 377.601,213.008 378.934,217.008 378.5,221.5C 379.183,224.461 380.016,224.795 381,222.5C 389.875,241.481 398.042,259.147 405.5,275.5C 404.339,277.224 404.505,278.89 406,280.5C 406.333,279.833 406.667,279.167 407,278.5C 409,282.5 411,286.5 413,290.5C 413.595,291.899 413.428,293.232 412.5,294.5C 413.183,297.461 414.016,297.795 415,295.5C 420.513,304.818 424.513,314.485 427,324.5C 427.333,323.833 427.667,323.167 428,322.5C 431.682,329.864 435.349,337.198 439,344.5C 438.775,349.117 440.109,353.45 443,357.5C 443.333,356.833 443.667,356.167 444,355.5C 450.506,366.81 455.506,378.477 459,390.5C 459.333,389.833 459.667,389.167 460,388.5C 465.106,398.378 469.939,408.378 474.5,418.5C 474.167,419.167 473.833,419.833 473.5,420.5C 474.667,422.833 475.833,425.167 477,427.5C 477.333,426.833 477.667,426.167 478,425.5C 481.016,431.531 484.016,437.531 487,443.5C 487.595,444.899 487.428,446.232 486.5,447.5C 487.333,449.167 488.167,450.833 489,452.5C 489.333,451.833 489.667,451.167 490,450.5C 494.852,458.492 498.186,466.826 500,475.5C 500.333,474.833 500.667,474.167 501,473.5C 503,477.5 505,481.5 507,485.5C 507.595,486.899 507.428,488.232 506.5,489.5C 507.183,492.461 508.016,492.795 509,490.5C 511,494.5 513,498.5 515,502.5C 515.595,503.899 515.428,505.232 514.5,506.5C 515.183,509.461 516.016,509.795 517,507.5C 521.911,516.607 525.578,525.941 528,535.5C 528.333,534.833 528.667,534.167 529,533.5C 531.411,536.59 532.245,539.924 531.5,543.5C 532.183,546.461 533.016,546.795 534,544.5C 536.411,547.59 537.245,550.924 536.5,554.5C 537.183,557.461 538.016,557.795 539,555.5C 541.274,559.714 543.274,564.047 545,568.5C 545.494,575.509 546.827,582.509 549,589.5C 549.21,587.942 549.71,586.609 550.5,585.5C 550.5,587.167 550.5,588.833 550.5,590.5C 549.167,592.5 549.167,594.5 550.5,596.5C 550.5,607.167 550.5,617.833 550.5,628.5C 549.539,630.265 549.205,632.265 549.5,634.5C 548.549,635.919 548.216,637.585 548.5,639.5C 547.566,640.568 547.232,641.901 547.5,643.5C 546.596,644.209 546.263,645.209 546.5,646.5C 545.167,647.5 545.167,648.5 546.5,649.5C 546.737,650.791 546.404,651.791 545.5,652.5C 545.167,651.167 544.833,651.167 544.5,652.5C 543.167,653.167 543.167,653.833 544.5,654.5C 544.737,655.791 544.404,656.791 543.5,657.5C 543.167,654.833 542.833,654.833 542.5,657.5C 541.662,657.842 541.328,658.508 541.5,659.5C 540.662,659.842 540.328,660.508 540.5,661.5C 539.662,661.842 539.328,662.508 539.5,663.5C 538.662,663.842 538.328,664.508 538.5,665.5C 537.167,666.167 537.167,666.833 538.5,667.5C 534.486,675.535 529.486,682.868 523.5,689.5C 523.167,688.167 522.833,688.167 522.5,689.5C 521.833,689.5 521.5,689.833 521.5,690.5C 520.833,690.5 520.5,690.833 520.5,691.5C 519.833,691.5 519.5,691.833 519.5,692.5C 518.833,692.5 518.5,692.833 518.5,693.5C 517.833,693.5 517.5,693.833 517.5,694.5C 516.833,694.5 516.5,694.833 516.5,695.5C 515.833,695.5 515.5,695.833 515.5,696.5C 514.833,696.5 514.5,696.833 514.5,697.5C 513.833,697.5 513.5,697.833 513.5,698.5C 512.508,698.328 511.842,698.662 511.5,699.5C 510.833,699.5 510.5,699.833 510.5,700.5C 509.833,700.5 509.5,700.833 509.5,701.5C 508.508,701.328 507.842,701.662 507.5,702.5C 506.833,702.5 506.5,702.833 506.5,703.5C 505.167,703.833 505.167,704.167 506.5,704.5C 506.158,705.338 505.492,705.672 504.5,705.5C 504.167,704.167 503.833,704.167 503.5,705.5C 502.508,705.328 501.842,705.662 501.5,706.5C 500.508,706.328 499.842,706.662 499.5,707.5C 498.833,707.5 498.5,707.833 498.5,708.5C 497.508,708.328 496.842,708.662 496.5,709.5C 495.209,709.263 494.209,709.596 493.5,710.5C 492.508,710.328 491.842,710.662 491.5,711.5C 490.508,711.328 489.842,711.662 489.5,712.5C 488.209,712.263 487.209,712.596 486.5,713.5C 485.209,713.263 484.209,713.596 483.5,714.5C 482.209,714.263 481.209,714.596 480.5,715.5C 478.901,715.232 477.568,715.566 476.5,716.5C 474.901,716.232 473.568,716.566 472.5,717.5C 470.585,717.216 468.919,717.549 467.5,718.5C 464.941,718.198 462.607,718.532 460.5,719.5C 336.833,719.5 213.167,719.5 89.5,719.5C 87.3926,718.532 85.0593,718.198 82.5,718.5C 71.998,716 61.6647,712.667 51.5,708.5C 43.2593,703.578 35.0926,696.912 27,688.5C 25.8525,689.458 24.8525,689.125 24,687.5C 19.1863,681.197 15.0197,674.531 11.5,667.5C 12.8333,666.833 12.8333,666.167 11.5,665.5C 11.6716,664.508 11.3382,663.842 10.5,663.5C 10.6716,662.508 10.3382,661.842 9.5,661.5C 9.67158,660.508 9.33825,659.842 8.5,659.5C 8.67158,658.508 8.33825,657.842 7.5,657.5C 7.16667,654.833 6.83333,654.833 6.5,657.5C 5.59603,656.791 5.26269,655.791 5.5,654.5C 6.83333,653.833 6.83333,653.167 5.5,652.5C 5.16667,651.167 4.83333,651.167 4.5,652.5C 3.59603,651.791 3.26269,650.791 3.5,649.5C 4.83333,648.5 4.83333,647.5 3.5,646.5C 3.73731,645.209 3.40397,644.209 2.5,643.5C 2.76781,641.901 2.43448,640.568 1.5,639.5C 1.78448,637.585 1.45115,635.919 0.5,634.5C 0.794717,632.265 0.461384,630.265 -0.5,628.5C -0.5,617.833 -0.5,607.167 -0.5,596.5C 0.833333,594.5 0.833333,592.5 -0.5,590.5C -0.5,588.833 -0.5,587.167 -0.5,585.5C 0.28997,586.609 0.78997,587.942 1,589.5C 2.08869,584.979 3.25535,580.479 4.5,576C 4.16667,575 3.83333,574 3.5,573C 16.0639,545.039 29.5639,517.539 44,490.5C 44.6667,491.833 45.3333,491.833 46,490.5C 50.877,476.398 57.2103,462.731 65,449.5C 65.6667,450.833 66.3333,450.833 67,449.5C 70.1883,438.768 74.8549,428.435 81,418.5C 81.6667,419.833 82.3333,419.833 83,418.5C 85.5183,409.105 89.5183,400.105 95,391.5C 95.6667,392.833 96.3333,392.833 97,391.5C 98.8471,383.444 102.18,375.777 107,368.5C 107.667,369.833 108.333,369.833 109,368.5C 110.847,360.444 114.18,352.777 119,345.5C 119.667,346.833 120.333,346.833 121,345.5C 121.837,339.457 124.17,333.791 128,328.5C 128.667,329.833 129.333,329.833 130,328.5C 131.174,321.785 133.841,315.452 138,309.5C 138.667,310.833 139.333,310.833 140,309.5C 140.064,305.304 141.398,301.304 144,297.5C 145.252,295.999 146.252,294.332 147,292.5C 147.667,293.833 148.333,293.833 149,292.5C 149.158,287.807 150.825,283.474 154,279.5C 154.667,280.833 155.333,280.833 156,279.5C 156.064,275.304 157.398,271.304 160,267.5C 161,267.167 162,266.833 163,266.5C 163.064,262.304 164.398,258.304 167,254.5C 168,254.167 169,253.833 170,253.5C 169.37,250.684 170.036,248.018 172,245.5C 173,245.167 174,244.833 175,244.5C 174.37,241.684 175.036,239.018 177,236.5C 179.254,232.993 181.254,229.327 183,225.5C 184,225.167 185,224.833 186,224.5C 186.492,223.451 186.326,222.451 185.5,221.5C 188.082,216.667 190.915,212 194,207.5C 194.169,148.596 194.669,89.7629 195.5,31C 185.566,21.2401 176.232,11.7401 167.5,2.5C 167.685,1.41635 168.018,0.416349 168.5,-0.5 Z M 195.5,33.5 C 196.167,90.5 196.833,147.5 197.5,204.5C 197.44,205.043 197.107,205.376 196.5,205.5C 195.5,148.171 195.167,90.8372 195.5,33.5 Z"/></g>
<g><path style="opacity:0.012" fill="#cacbc9" d="M 398.5,5.5 C 398.833,5.5 399.167,5.5 399.5,5.5C 399.315,6.17014 398.981,6.17014 398.5,5.5 Z"/></g>
<g><path style="opacity:0.012" fill="#cbcbca" d="M 397.5,6.5 C 397.833,6.5 398.167,6.5 398.5,6.5C 398.315,7.17014 397.981,7.17014 397.5,6.5 Z"/></g>
<g><path style="opacity:1" fill="#d7e9fb" d="M 193.5,6.5 C 200.798,14.2983 208.298,21.9649 216,29.5C 216.667,89.8333 216.667,150.167 216,210.5C 203.078,237.343 189.912,264.01 176.5,290.5C 126.757,379.642 78.2569,469.642 31,560.5C 9.9523,606.719 17.119,647.886 52.5,684C 68.7743,696.129 87.1077,702.629 107.5,703.5C 217.999,704.666 328.666,704.833 439.5,704C 491.733,700.1 521.9,672.267 530,620.5C 531.613,604.797 529.947,589.464 525,574.5C 513.607,549.38 501.94,524.38 490,499.5C 455.228,430.29 420.728,360.957 386.5,291.5C 382.217,290.508 377.884,290.174 373.5,290.5C 361.014,264.193 348.514,237.86 336,211.5C 335.333,150.5 335.333,89.5 336,28.5C 343.369,21.2982 350.536,13.9649 357.5,6.5C 367.348,6.17287 377.014,6.5062 386.5,7.5C 379.202,14.2974 372.035,21.2974 365,28.5C 364.333,88.5 364.333,148.5 365,208.5C 421.377,328.257 478.044,447.924 535,567.5C 550.945,609.423 545.278,648.09 518,683.5C 503.967,699.102 486.467,708.268 465.5,711C 340.189,712.652 214.856,712.985 89.5,712C 58.9353,708.816 36.102,693.983 21,667.5C 3.97544,635.085 1.97544,601.752 15,567.5C 75.451,445.922 138.451,325.922 204,207.5C 204.667,148.167 204.667,88.8333 204,29.5C 196.469,22.303 189.302,14.803 182.5,7C 186.152,6.50137 189.818,6.3347 193.5,6.5 Z"/></g>
<g><path style="opacity:1" fill="#fefdfd" d="M 344.5,6.5 C 348.833,6.5 353.167,6.5 357.5,6.5C 350.536,13.9649 343.369,21.2982 336,28.5C 335.333,89.5 335.333,150.5 336,211.5C 348.514,237.86 361.014,264.193 373.5,290.5C 373.833,291.167 374.167,291.833 374.5,292.5C 420.319,389.474 466.153,486.474 512,583.5C 524.686,629.639 510.519,665.139 469.5,690C 456.521,696.822 442.854,700.989 428.5,702.5C 383.5,702.5 338.5,702.5 293.5,702.5C 325.984,698.678 358.651,695.178 391.5,692C 421.312,690.397 448.312,681.064 472.5,664C 491.112,647.413 497.279,626.913 491,602.5C 489.073,594.718 486.739,587.051 484,579.5C 441.783,483.743 399.616,388.077 357.5,292.5C 357.5,291.833 357.5,291.167 357.5,290.5C 345.956,263.742 334.122,237.075 322,210.5C 321.333,150.167 321.333,89.8333 322,29.5C 329.702,21.9649 337.202,14.2983 344.5,6.5 Z"/></g>
<g><path style="opacity:1" fill="#b1bfcf" d="M 386.5,7.5 C 377.014,6.5062 367.348,6.17287 357.5,6.5C 353.167,6.5 348.833,6.5 344.5,6.5C 298.832,6.33334 253.165,6.50001 207.5,7C 214.302,14.803 221.469,22.303 229,29.5C 229.667,89.8333 229.667,150.167 229,210.5C 217.212,237.072 205.712,263.738 194.5,290.5C 188.5,290.5 182.5,290.5 176.5,290.5C 189.912,264.01 203.078,237.343 216,210.5C 216.667,150.167 216.667,89.8333 216,29.5C 208.298,21.9649 200.798,14.2983 193.5,6.5C 258.162,5.2146 322.828,5.2146 387.5,6.5C 387.376,7.10667 387.043,7.44001 386.5,7.5 Z"/></g>
<g><path style="opacity:0.02" fill="#b3b4b2" d="M 396.5,7.5 C 396.833,7.5 397.167,7.5 397.5,7.5C 397.315,8.17014 396.981,8.17014 396.5,7.5 Z"/></g>
<g><path style="opacity:1" fill="#d7e9fc" d="M 344.5,6.5 C 337.202,14.2983 329.702,21.9649 322,29.5C 321.333,89.8333 321.333,150.167 322,210.5C 334.122,237.075 345.956,263.742 357.5,290.5C 303.167,290.5 248.833,290.5 194.5,290.5C 205.712,263.738 217.212,237.072 229,210.5C 229.667,150.167 229.667,89.8333 229,29.5C 221.469,22.303 214.302,14.803 207.5,7C 253.165,6.50001 298.832,6.33334 344.5,6.5 Z"/></g>
<g><path style="opacity:0.016" fill="#e8e8e4" d="M 395.5,8.5 C 395.833,8.5 396.167,8.5 396.5,8.5C 396.315,9.17014 395.981,9.17014 395.5,8.5 Z"/></g>
<g><path style="opacity:0.016" fill="#9292e5" d="M 394.5,9.5 C 394.833,9.5 395.167,9.5 395.5,9.5C 395.315,10.1701 394.981,10.1701 394.5,9.5 Z"/></g>
<g><path style="opacity:0.02" fill="#b5b5b1" d="M 393.5,10.5 C 393.833,10.5 394.167,10.5 394.5,10.5C 394.315,11.1701 393.981,11.1701 393.5,10.5 Z"/></g>
<g><path style="opacity:0.016" fill="#e8e9e5" d="M 392.5,11.5 C 392.833,11.5 393.167,11.5 393.5,11.5C 393.315,12.1701 392.981,12.1701 392.5,11.5 Z"/></g>
<g><path style="opacity:0.016" fill="#9292e6" d="M 391.5,12.5 C 391.833,12.5 392.167,12.5 392.5,12.5C 392.315,13.1701 391.981,13.1701 391.5,12.5 Z"/></g>
<g><path style="opacity:0.02" fill="#b5b5b1" d="M 390.5,13.5 C 390.833,13.5 391.167,13.5 391.5,13.5C 391.315,14.1701 390.981,14.1701 390.5,13.5 Z"/></g>
<g><path style="opacity:0.016" fill="#e8e9e5" d="M 389.5,14.5 C 389.833,14.5 390.167,14.5 390.5,14.5C 390.315,15.1701 389.981,15.1701 389.5,14.5 Z"/></g>
<g><path style="opacity:0.016" fill="#9091e4" d="M 388.5,15.5 C 388.833,15.5 389.167,15.5 389.5,15.5C 389.315,16.1701 388.981,16.1701 388.5,15.5 Z"/></g>
<g><path style="opacity:0.016" fill="#e7e7e3" d="M 387.5,16.5 C 387.833,16.5 388.167,16.5 388.5,16.5C 388.315,17.1701 387.981,17.1701 387.5,16.5 Z"/></g>
<g><path style="opacity:0.016" fill="#e7e7e3" d="M 386.5,17.5 C 386.833,17.5 387.167,17.5 387.5,17.5C 387.315,18.1701 386.981,18.1701 386.5,17.5 Z"/></g>
<g><path style="opacity:0.016" fill="#9091e4" d="M 385.5,18.5 C 385.833,18.5 386.167,18.5 386.5,18.5C 386.315,19.1701 385.981,19.1701 385.5,18.5 Z"/></g>
<g><path style="opacity:0.016" fill="#e6e7e3" d="M 384.5,19.5 C 384.833,19.5 385.167,19.5 385.5,19.5C 385.315,20.1701 384.981,20.1701 384.5,19.5 Z"/></g>
<g><path style="opacity:0.016" fill="#e6e7e3" d="M 383.5,20.5 C 383.833,20.5 384.167,20.5 384.5,20.5C 384.315,21.1701 383.981,21.1701 383.5,20.5 Z"/></g>
<g><path style="opacity:0.016" fill="#9091e4" d="M 382.5,21.5 C 382.833,21.5 383.167,21.5 383.5,21.5C 383.315,22.1701 382.981,22.1701 382.5,21.5 Z"/></g>
<g><path style="opacity:0.016" fill="#e6e7e3" d="M 381.5,22.5 C 381.833,22.5 382.167,22.5 382.5,22.5C 382.315,23.1701 381.981,23.1701 381.5,22.5 Z"/></g>
<g><path style="opacity:0.016" fill="#e6e7e3" d="M 380.5,23.5 C 380.833,23.5 381.167,23.5 381.5,23.5C 381.315,24.1701 380.981,24.1701 380.5,23.5 Z"/></g>
<g><path style="opacity:0.016" fill="#9091e4" d="M 379.5,24.5 C 379.833,24.5 380.167,24.5 380.5,24.5C 380.315,25.1701 379.981,25.1701 379.5,24.5 Z"/></g>
<g><path style="opacity:0.016" fill="#e6e7e3" d="M 378.5,25.5 C 378.833,25.5 379.167,25.5 379.5,25.5C 379.315,26.1701 378.981,26.1701 378.5,25.5 Z"/></g>
<g><path style="opacity:0.016" fill="#e6e7e3" d="M 377.5,26.5 C 377.833,26.5 378.167,26.5 378.5,26.5C 378.315,27.1701 377.981,27.1701 377.5,26.5 Z"/></g>
<g><path style="opacity:0.016" fill="#9091e4" d="M 376.5,27.5 C 376.833,27.5 377.167,27.5 377.5,27.5C 377.315,28.1701 376.981,28.1701 376.5,27.5 Z"/></g>
<g><path style="opacity:0.016" fill="#e6e7e3" d="M 375.5,28.5 C 375.833,28.5 376.167,28.5 376.5,28.5C 376.315,29.1701 375.981,29.1701 375.5,28.5 Z"/></g>
<g><path style="opacity:0.016" fill="#e6e7e3" d="M 374.5,29.5 C 374.833,29.5 375.167,29.5 375.5,29.5C 375.315,30.1701 374.981,30.1701 374.5,29.5 Z"/></g>
<g><path style="opacity:0.016" fill="#9192e5" d="M 373.5,30.5 C 373.833,30.5 374.167,30.5 374.5,30.5C 374.315,31.1701 373.981,31.1701 373.5,30.5 Z"/></g>
<g><path style="opacity:0.008" fill="#fefffe" d="M 195.5,33.5 C 195.5,33.1667 195.5,32.8333 195.5,32.5C 197.496,89.4903 198.163,146.824 197.5,204.5C 196.833,147.5 196.167,90.5 195.5,33.5 Z"/></g>
<g><path style="opacity:0.016" fill="#eaeaeb" d="M 372.5,31.5 C 372.833,31.5 373.167,31.5 373.5,31.5C 373.178,90.8627 373.512,150.196 374.5,209.5C 374.167,209.5 373.833,209.5 373.5,209.5C 373.5,209.167 373.5,208.833 373.5,208.5C 372.833,208.5 372.5,208.167 372.5,207.5C 372.5,207.167 372.5,206.833 372.5,206.5C 372.5,206.167 372.5,205.833 372.5,205.5C 372.5,205.167 372.5,204.833 372.5,204.5C 372.5,147.5 372.5,90.5 372.5,33.5C 372.5,33.1667 372.5,32.8333 372.5,32.5C 372.5,32.1667 372.5,31.8333 372.5,31.5 Z"/></g>
<g><path style="opacity:1" fill="#eb747d" d="M 193.5,292.5 C 248.167,292.5 302.833,292.5 357.5,292.5C 399.616,388.077 441.783,483.743 484,579.5C 486.739,587.051 489.073,594.718 491,602.5C 497.279,626.913 491.112,647.413 472.5,664C 448.312,681.064 421.312,690.397 391.5,692C 358.651,695.178 325.984,698.678 293.5,702.5C 292.833,702.5 292.167,702.5 291.5,702.5C 279.167,702.5 266.833,702.5 254.5,702.5C 217.271,698.782 179.938,694.616 142.5,690C 117.944,686.488 95.9444,677.155 76.5,662C 59.9211,645.779 54.4211,626.279 60,603.5C 61.929,595.713 64.2623,588.046 67,580.5C 109.271,484.512 151.437,388.512 193.5,292.5 Z"/></g>
<g><path style="opacity:1" fill="#eb747d" d="M 374.5,292.5 C 378.226,292.177 381.893,292.511 385.5,293.5C 432.677,386.188 478.511,479.521 523,573.5C 535.011,610.437 529.011,644.103 505,674.5C 490.686,689.443 473.186,698.277 452.5,701C 444.53,702.022 436.53,702.522 428.5,702.5C 442.854,700.989 456.521,696.822 469.5,690C 510.519,665.139 524.686,629.639 512,583.5C 466.153,486.474 420.319,389.474 374.5,292.5 Z"/></g>
<g><path style="opacity:1" fill="#c25f67" d="M 193.5,292.5 C 151.437,388.512 109.271,484.512 67,580.5C 64.2623,588.046 61.929,595.713 60,603.5C 54.4211,626.279 59.9211,645.779 76.5,662C 95.9444,677.155 117.944,686.488 142.5,690C 179.938,694.616 217.271,698.782 254.5,702.5C 204.832,702.667 155.166,702.5 105.5,702C 69.1083,699.568 43.6083,681.735 29,648.5C 16.2259,616.887 18.2259,586.22 35,556.5C 81.1492,468.196 128.316,380.53 176.5,293.5C 182.128,292.505 187.794,292.171 193.5,292.5 Z"/></g>
<g><path style="opacity:1" fill="#8a939e" d="M 176.5,290.5 C 182.5,290.5 188.5,290.5 194.5,290.5C 248.833,290.5 303.167,290.5 357.5,290.5C 357.5,291.167 357.5,291.833 357.5,292.5C 302.833,292.5 248.167,292.5 193.5,292.5C 187.794,292.171 182.128,292.505 176.5,293.5C 128.316,380.53 81.1492,468.196 35,556.5C 18.2259,586.22 16.2259,616.887 29,648.5C 43.6083,681.735 69.1083,699.568 105.5,702C 155.166,702.5 204.832,702.667 254.5,702.5C 266.833,702.5 279.167,702.5 291.5,702.5C 230.336,703.499 169.002,703.832 107.5,703.5C 87.1077,702.629 68.7743,696.129 52.5,684C 17.119,647.886 9.9523,606.719 31,560.5C 78.2569,469.642 126.757,379.642 176.5,290.5 Z"/></g>
<g><path style="opacity:1" fill="#98a6b2" d="M 373.5,290.5 C 377.884,290.174 382.217,290.508 386.5,291.5C 420.728,360.957 455.228,430.29 490,499.5C 501.94,524.38 513.607,549.38 525,574.5C 529.947,589.464 531.613,604.797 530,620.5C 521.9,672.267 491.733,700.1 439.5,704C 328.666,704.833 217.999,704.666 107.5,703.5C 169.002,703.832 230.336,703.499 291.5,702.5C 292.167,702.5 292.833,702.5 293.5,702.5C 338.5,702.5 383.5,702.5 428.5,702.5C 436.53,702.522 444.53,702.022 452.5,701C 473.186,698.277 490.686,689.443 505,674.5C 529.011,644.103 535.011,610.437 523,573.5C 478.511,479.521 432.677,386.188 385.5,293.5C 381.893,292.511 378.226,292.177 374.5,292.5C 374.167,291.833 373.833,291.167 373.5,290.5 Z"/></g>
<g><path style="opacity:0.016" fill="#8087b1" d="M -0.5,634.5 C -0.166667,634.5 0.166667,634.5 0.5,634.5C 0.5,636.167 0.5,637.833 0.5,639.5C 0.166667,639.5 -0.166667,639.5 -0.5,639.5C -0.5,637.833 -0.5,636.167 -0.5,634.5 Z"/></g>
<g><path style="opacity:0.016" fill="#8087b1" d="M 549.5,634.5 C 549.833,634.5 550.167,634.5 550.5,634.5C 550.5,636.167 550.5,637.833 550.5,639.5C 550.167,639.5 549.833,639.5 549.5,639.5C 549.5,637.833 549.5,636.167 549.5,634.5 Z"/></g>
<g><path style="opacity:0.012" fill="#9b9abd" d="M 0.5,639.5 C 0.833333,639.5 1.16667,639.5 1.5,639.5C 1.5,640.833 1.5,642.167 1.5,643.5C 0.565525,642.432 0.232191,641.099 0.5,639.5 Z"/></g>
<g><path style="opacity:0.012" fill="#9b9abd" d="M 548.5,639.5 C 548.833,639.5 549.167,639.5 549.5,639.5C 549.768,641.099 549.434,642.432 548.5,643.5C 548.5,642.167 548.5,640.833 548.5,639.5 Z"/></g>
<g><path style="opacity:0.012" fill="#dbdaf2" d="M 1.5,643.5 C 1.83333,643.5 2.16667,643.5 2.5,643.5C 2.5,644.5 2.5,645.5 2.5,646.5C 1.59603,645.791 1.26269,644.791 1.5,643.5 Z"/></g>
<g><path style="opacity:0.012" fill="#dbdaf2" d="M 547.5,643.5 C 547.833,643.5 548.167,643.5 548.5,643.5C 548.737,644.791 548.404,645.791 547.5,646.5C 547.5,645.5 547.5,644.5 547.5,643.5 Z"/></g>
<g><path style="opacity:0.016" fill="#a9a5cd" d="M 2.5,646.5 C 2.83333,646.5 3.16667,646.5 3.5,646.5C 3.5,647.5 3.5,648.5 3.5,649.5C 2.59603,648.791 2.26269,647.791 2.5,646.5 Z"/></g>
<g><path style="opacity:0.016" fill="#a9a5cd" d="M 546.5,646.5 C 546.833,646.5 547.167,646.5 547.5,646.5C 547.737,647.791 547.404,648.791 546.5,649.5C 546.5,648.5 546.5,647.5 546.5,646.5 Z"/></g>
<g><path style="opacity:0.008" fill="#ebebeb" d="M 4.5,652.5 C 4.83333,652.5 5.16667,652.5 5.5,652.5C 5.5,653.167 5.5,653.833 5.5,654.5C 4.66175,654.158 4.32842,653.492 4.5,652.5 Z"/></g>
<g><path style="opacity:0.008" fill="#ebebeb" d="M 544.5,652.5 C 544.833,652.5 545.167,652.5 545.5,652.5C 545.672,653.492 545.338,654.158 544.5,654.5C 544.5,653.833 544.5,653.167 544.5,652.5 Z"/></g>
<g><path style="opacity:0.008" fill="#ebebeb" d="M 6.5,657.5 C 6.83333,657.5 7.16667,657.5 7.5,657.5C 7.5,658.167 7.5,658.833 7.5,659.5C 6.66175,659.158 6.32842,658.492 6.5,657.5 Z"/></g>
<g><path style="opacity:0.008" fill="#ebebeb" d="M 542.5,657.5 C 542.833,657.5 543.167,657.5 543.5,657.5C 543.672,658.492 543.338,659.158 542.5,659.5C 542.5,658.833 542.5,658.167 542.5,657.5 Z"/></g>
<g><path style="opacity:0.012" fill="#dcdcdc" d="M 7.5,659.5 C 7.83333,659.5 8.16667,659.5 8.5,659.5C 8.5,660.167 8.5,660.833 8.5,661.5C 7.66175,661.158 7.32842,660.492 7.5,659.5 Z"/></g>
<g><path style="opacity:0.012" fill="#dcdcdc" d="M 541.5,659.5 C 541.833,659.5 542.167,659.5 542.5,659.5C 542.672,660.492 542.338,661.158 541.5,661.5C 541.5,660.833 541.5,660.167 541.5,659.5 Z"/></g>
<g><path style="opacity:0.012" fill="#dfdfdc" d="M 8.5,661.5 C 8.83333,661.5 9.16667,661.5 9.5,661.5C 9.5,662.167 9.5,662.833 9.5,663.5C 8.66175,663.158 8.32842,662.492 8.5,661.5 Z"/></g>
<g><path style="opacity:0.012" fill="#dfdfdc" d="M 540.5,661.5 C 540.833,661.5 541.167,661.5 541.5,661.5C 541.672,662.492 541.338,663.158 540.5,663.5C 540.5,662.833 540.5,662.167 540.5,661.5 Z"/></g>
<g><path style="opacity:0.012" fill="#c3bee0" d="M 9.5,663.5 C 9.83333,663.5 10.1667,663.5 10.5,663.5C 10.5,664.167 10.5,664.833 10.5,665.5C 9.66175,665.158 9.32842,664.492 9.5,663.5 Z"/></g>
<g><path style="opacity:0.012" fill="#c3bee0" d="M 539.5,663.5 C 539.833,663.5 540.167,663.5 540.5,663.5C 540.672,664.492 540.338,665.158 539.5,665.5C 539.5,664.833 539.5,664.167 539.5,663.5 Z"/></g>
<g><path style="opacity:0.012" fill="#bdbcbc" d="M 10.5,665.5 C 10.8333,665.5 11.1667,665.5 11.5,665.5C 11.5,666.167 11.5,666.833 11.5,667.5C 10.6618,667.158 10.3284,666.492 10.5,665.5 Z"/></g>
<g><path style="opacity:0.012" fill="#bdbcbc" d="M 538.5,665.5 C 538.833,665.5 539.167,665.5 539.5,665.5C 539.672,666.492 539.338,667.158 538.5,667.5C 538.5,666.833 538.5,666.167 538.5,665.5 Z"/></g>
<g><path style="opacity:0.012" fill="#cfd0c9" d="M 522.5,689.5 C 522.833,689.5 523.167,689.5 523.5,689.5C 523.315,690.17 522.981,690.17 522.5,689.5 Z"/></g>
<g><path style="opacity:0.016" fill="#9492e5" d="M 521.5,690.5 C 521.833,690.5 522.167,690.5 522.5,690.5C 522.315,691.17 521.981,691.17 521.5,690.5 Z"/></g>
<g><path style="opacity:0.016" fill="#94e7e3" d="M 520.5,691.5 C 520.833,691.5 521.167,691.5 521.5,691.5C 521.315,692.17 520.981,692.17 520.5,691.5 Z"/></g>
<g><path style="opacity:0.016" fill="#e9e7e3" d="M 519.5,692.5 C 519.833,692.5 520.167,692.5 520.5,692.5C 520.315,693.17 519.981,693.17 519.5,692.5 Z"/></g>
<g><path style="opacity:0.016" fill="#9091e4" d="M 518.5,693.5 C 518.833,693.5 519.167,693.5 519.5,693.5C 519.315,694.17 518.981,694.17 518.5,693.5 Z"/></g>
<g><path style="opacity:0.016" fill="#e9eae3" d="M 517.5,694.5 C 517.833,694.5 518.167,694.5 518.5,694.5C 518.315,695.17 517.981,695.17 517.5,694.5 Z"/></g>
<g><path style="opacity:0.016" fill="#9391e4" d="M 516.5,695.5 C 516.833,695.5 517.167,695.5 517.5,695.5C 517.315,696.17 516.981,696.17 516.5,695.5 Z"/></g>
<g><path style="opacity:0.016" fill="#95e8e4" d="M 515.5,696.5 C 515.833,696.5 516.167,696.5 516.5,696.5C 516.315,697.17 515.981,697.17 515.5,696.5 Z"/></g>
<g><path style="opacity:0.012" fill="#c9c7c5" d="M 514.5,697.5 C 514.833,697.5 515.167,697.5 515.5,697.5C 515.315,698.17 514.981,698.17 514.5,697.5 Z"/></g>
<g><path style="opacity:0.008" fill="#fefffe" d="M 513.5,698.5 C 513.833,698.5 514.167,698.5 514.5,698.5C 514.315,699.17 513.981,699.17 513.5,698.5 Z"/></g>
<g><path style="opacity:0.004" fill="#d8d8d8" d="M 511.5,700.5 C 511.5,700.167 511.5,699.833 511.5,699.5C 512.167,699.5 512.833,699.5 513.5,699.5C 513.158,700.338 512.492,700.672 511.5,700.5 Z"/></g>
<g><path style="opacity:0.012" fill="#ccccc7" d="M 510.5,700.5 C 510.833,700.5 511.167,700.5 511.5,700.5C 511.315,701.17 510.981,701.17 510.5,700.5 Z"/></g>
<g><path style="opacity:0.012" fill="#ccccfe" d="M 509.5,701.5 C 509.833,701.5 510.167,701.5 510.5,701.5C 510.315,702.17 509.981,702.17 509.5,701.5 Z"/></g>
<g><path style="opacity:0.008" fill="#999995" d="M 507.5,703.5 C 507.5,703.167 507.5,702.833 507.5,702.5C 508.167,702.5 508.833,702.5 509.5,702.5C 509.158,703.338 508.492,703.672 507.5,703.5 Z"/></g>
<g><path style="opacity:0.016" fill="#9591e4" d="M 506.5,703.5 C 506.833,703.5 507.167,703.5 507.5,703.5C 507.315,704.17 506.981,704.17 506.5,703.5 Z"/></g>
<g><path style="opacity:0.016" fill="#8c8ce9" d="M 503.5,705.5 C 503.833,705.5 504.167,705.5 504.5,705.5C 504.315,706.17 503.981,706.17 503.5,705.5 Z"/></g>
<g><path style="opacity:0.006" fill="#fefffe" d="M 501.5,707.5 C 501.5,707.167 501.5,706.833 501.5,706.5C 502.167,706.5 502.833,706.5 503.5,706.5C 503.158,707.338 502.492,707.672 501.5,707.5 Z"/></g>
<g><path style="opacity:0.012" fill="#878787" d="M 499.5,708.5 C 499.5,708.167 499.5,707.833 499.5,707.5C 500.167,707.5 500.833,707.5 501.5,707.5C 501.158,708.338 500.492,708.672 499.5,708.5 Z"/></g>
<g><path style="opacity:0.012" fill="#d3d4d3" d="M 51.5,708.5 C 50.8333,709.167 50.8333,709.167 51.5,708.5 Z"/></g>
<g><path style="opacity:0.012" fill="#d3d4d3" d="M 498.5,708.5 C 498.833,708.5 499.167,708.5 499.5,708.5C 499.315,709.17 498.981,709.17 498.5,708.5 Z"/></g>
<g><path style="opacity:0.012" fill="#d8d9ce" d="M 496.5,709.5 C 497.833,710.167 497.833,710.167 496.5,709.5 Z"/></g>
<g><path style="opacity:0.012" fill="#c4afff" d="M 493.5,711.5 C 493.5,711.167 493.5,710.833 493.5,710.5C 494.5,710.5 495.5,710.5 496.5,710.5C 495.791,711.404 494.791,711.737 493.5,711.5 Z"/></g>
<g><path style="opacity:0.012" fill="#c0bbdc" d="M 491.5,712.5 C 491.5,712.167 491.5,711.833 491.5,711.5C 492.167,711.5 492.833,711.5 493.5,711.5C 493.158,712.338 492.492,712.672 491.5,712.5 Z"/></g>
<g><path style="opacity:0.008" fill="#aeaaeb" d="M 489.5,713.5 C 489.5,713.167 489.5,712.833 489.5,712.5C 490.167,712.5 490.833,712.5 491.5,712.5C 491.158,713.338 490.492,713.672 489.5,713.5 Z"/></g>
<g><path style="opacity:0.012" fill="#e4e4e4" d="M 486.5,714.5 C 486.5,714.167 486.5,713.833 486.5,713.5C 487.5,713.5 488.5,713.5 489.5,713.5C 488.791,714.404 487.791,714.737 486.5,714.5 Z"/></g>
<g><path style="opacity:0.012" fill="#e5e4ff" d="M 483.5,715.5 C 483.5,715.167 483.5,714.833 483.5,714.5C 484.5,714.5 485.5,714.5 486.5,714.5C 485.791,715.404 484.791,715.737 483.5,715.5 Z"/></g>
<g><path style="opacity:0.016" fill="#a8a5cd" d="M 480.5,716.5 C 480.5,716.167 480.5,715.833 480.5,715.5C 481.5,715.5 482.5,715.5 483.5,715.5C 482.791,716.404 481.791,716.737 480.5,716.5 Z"/></g>
<g><path style="opacity:0.004" fill="#d0efee" d="M 476.5,717.5 C 476.5,717.167 476.5,716.833 476.5,716.5C 477.833,716.5 479.167,716.5 480.5,716.5C 479.432,717.434 478.099,717.768 476.5,717.5 Z"/></g>
<g><path style="opacity:0.016" fill="#bcd7d7" d="M 472.5,718.5 C 472.5,718.167 472.5,717.833 472.5,717.5C 473.833,717.5 475.167,717.5 476.5,717.5C 475.432,718.434 474.099,718.768 472.5,718.5 Z"/></g>
<g><path style="opacity:0.008" fill="#9e98dc" d="M 77.5,719.5 C 78.9187,718.549 80.5853,718.216 82.5,718.5C 82.5,718.833 82.5,719.167 82.5,719.5C 80.8333,719.5 79.1667,719.5 77.5,719.5 Z"/></g>
<g><path style="opacity:0.012" fill="#b2afc9" d="M 467.5,719.5 C 467.5,719.167 467.5,718.833 467.5,718.5C 469.167,718.5 470.833,718.5 472.5,718.5C 472.5,718.833 472.5,719.167 472.5,719.5C 470.833,719.5 469.167,719.5 467.5,719.5 Z"/></g>
</svg>
