<svg width="2038" height="1034" xmlns="http://www.w3.org/2000/svg" xmlns:xlink="http://www.w3.org/1999/xlink" xml:space="preserve" overflow="hidden"><defs><clipPath id="clip0"><rect x="162" y="223" width="2038" height="1034"/></clipPath></defs><g clip-path="url(#clip0)" transform="translate(-162 -223)"><text font-family="Mateur,Mateur_MSFontService,sans-serif" font-weight="700" font-size="330" transform="matrix(1 0 0 1 957.074 619)">Roger</text><text font-family="Mateur,Mateur_MSFontService,sans-serif" font-weight="700" font-size="330" transform="matrix(1 0 0 1 571.532 941)">Gabiru</text><path d="M320.624 166.983C306.207 164.2 292.487 153.305 287.952 141.018 284.58 131.977 284.813 118.068 288.533 110.649L290.975 105.665 232.491 61.0386 174.007 16.4122 89.8265 16.4122C6.34411 16.4122 5.53026 16.4122 2.5072 13.9784-1.67856 10.7325-1.67856 4.70523 2.5072 1.45974 5.53026-0.974475 6.34411-0.974475 93.3146-0.974475L181.099-0.974475 225.398 32.8719C249.815 51.534 277.372 72.5138 286.673 79.7003L303.533 92.5669 309.346 89.9008C332.6 79.3527 359.807 88.8577 370.039 111.229 374.458 120.617 374.458 132.556 370.156 141.829 363.993 155.043 351.901 164.316 337.251 166.983 329.577 168.373 327.717 168.373 320.624 166.983ZM343.879 145.423C357.715 135.57 357.715 117.488 343.879 107.519 339.576 104.506 337.6 103.926 330.507 103.578 323.415 103.231 321.322 103.578 316.904 106.013 298.765 115.633 300.51 141.366 319.81 148.32 321.787 149.132 326.787 149.48 331.089 149.364 337.716 149.132 339.576 148.552 343.879 145.423Z" fill="#7D7D7D" fill-rule="evenodd" transform="matrix(1 0 0 -1 1686 799)"/><path d="M461.235 99.107C449.713 95.8458 437.841 85.8289 433.302 75.463L430.975 70.338 351.601 70.338 272.227 70.338 236.031 44.1317 199.719 17.9249 104.284 17.9249C40.9714 17.9249 7.68527 17.459 5.59054 16.7601-2.2074 13.7318-3.13831 4.64711 4.07753 1.03626 6.87063-0.477858 21.7678-0.710828 106.612-0.710828L205.888-0.710828 242.781 26.0781 279.675 52.7504 354.627 52.6341 429.695 52.6341 432.255 45.6458C436.561 33.7654 446.221 24.9133 460.071 20.2543 468.451 17.459 475.899 17.3427 484.977 19.672 499.176 23.3992 508.021 30.6205 514.073 43.3161 517.216 49.9552 517.448 51.353 516.983 60.7874 516.284 77.676 509.069 88.2749 493.473 95.9621 486.839 99.2234 484.046 99.9223 476.132 100.272 470.662 100.388 464.261 99.9223 461.235 99.107ZM485.326 80.4713C493.706 76.1619 498.594 68.358 498.594 59.2732 498.594 52.0515 496.383 47.2762 490.68 42.1516 477.994 30.6205 457.86 34.5806 450.76 49.9552 443.312 66.1449 456.696 84.0818 475.434 82.6843 479.042 82.4514 483.464 81.4032 485.326 80.4713Z" fill="#7D7D7D" fill-rule="evenodd" transform="matrix(1 0 0 -1 1682 844)"/><path d="M345.189 79.3193C332.021 75.0189 321.417 65.2555 317.572 53.4005L316.057 48.9837 160.258 48.9837 4.34219 48.9837 1.89523 46.3104C-1.71735 42.475-1.48415 37.0119 2.36127 33.99L5.50746 31.5491 160.724 31.5491 315.824 31.5491 318.504 25.2729C322.466 15.7423 328.992 9.11718 339.363 4.00298 347.753-0.181298 348.802-0.413778 359.289-0.413778 369.427-0.413778 371.175-0.0648781 378.167 3.18948 388.422 8.0712 394.714 13.9989 399.142 22.832 415.34 55.7249 381.78 90.9422 345.189 79.3193ZM372.923 60.0252C380.731 55.4924 384.46 49.0998 384.46 40.1502 384.46 30.6196 380.381 24.343 371.175 19.6941 363.135 15.6259 356.26 15.5098 348.336 19.2292 341.46 22.3671 339.363 24.5755 336.216 31.5491 333.07 38.5232 333.187 42.7071 336.799 49.9136 343.441 63.2796 359.639 67.8128 372.923 60.0252Z" fill="#7D7D7D" fill-rule="evenodd" transform="matrix(1 0 0 -1 1669 918)"/><path d="M7.02065 115.06C4.45961 114.592 1.78153 113.188 0.850309 112.017-1.36179 108.974-1.0125 104.059 1.54891 100.899L3.76101 98.0907 52.8915 97.7394 102.138 97.3884 117.972 82.6425C126.703 74.5675 137.298 64.3857 141.489 60.1726 145.68 55.9594 154.063 47.8844 160.233 42.2667L171.293 31.968 221.239 31.968 271.184 31.968 274.328 25.0631C289.812-8.40783 339.291-8.52469 355.241 24.9462 357.686 30.0953 358.385 33.1385 358.385 40.1603 358.501 52.9166 355.707 60.8748 347.79 69.418 340.339 77.6103 332.306 81.8234 321.129 83.3448 300.639 86.2707 279.566 74.3334 273.396 56.3103L271.533 50.693 224.615 50.693 177.697 50.693 173.738 55.1403C170.362 58.8853 153.713 74.5675 115.178 110.379L109.356 115.762 60.4586 115.879C33.5652 115.997 9.46574 115.645 7.02065 115.06ZM325.088 62.3962C331.608 59.4703 337.429 52.3316 339.291 44.7244 341.271 36.7662 339.175 30.4467 332.422 23.6589 327.998 19.2117 325.903 17.9244 320.431 16.8708 308.207 14.2962 297.379 19.3285 292.14 30.2126 287.251 40.2771 288.997 48.8203 297.961 58.0662 304.83 64.9707 315.308 66.6093 325.088 62.3962Z" fill="#7D7D7D" fill-rule="evenodd" transform="matrix(1 0 0 -1 1643 1024)"/><path d="M187.425 462.135C176.689 456.533 168.909 444.707 168.909 433.66L168.909 426.658 128.92 403.473C106.825 390.559 81.618 376.088 72.9046 370.953L57.0333 361.773 51.1204 365.352C41.94 371.109 27.3138 370.642 17.0442 364.418 12.3764 361.462 7.7083 356.794 4.75187 352.126-4.7396 336.721 0.239633 314.159 14.8659 305.757L21.0898 302.178 21.0898 236.827 21.0898 171.475 13.7767 166.029C-4.89514 152.025-5.82877 126.195 11.9094 111.102 22.8015 101.611 37.5833 99.899 50.9649 106.278L56.4107 108.768 114.294 75.0032 172.021 41.2381 172.021 33.925C172.021 23.9665 179.179 11.8297 188.048 6.53937 212.166-7.4647 240.485 8.25108 241.263 35.9478L241.574 45.2837 296.345 76.7145 351.116 108.146 357.651 104.411C366.209 99.5879 379.746 99.2764 389.238 103.789L395.773 107.057 453.034 73.447 510.45 39.9934 511.383 31.4352C515.118-1.86293 558.375-12.4439 575.646 15.7198 579.381 21.6326 580.47 25.5223 580.936 33.6135L581.559 43.8831 636.174 75.4698C683.01 102.544 691.101 106.59 693.124 104.878 700.748 98.4987 716.308 97.2536 726.733 102.077 738.714 107.679 747.739 121.372 747.739 133.975 747.739 143.156 743.227 153.114 735.913 159.649 732.179 163.228 728.445 166.029 727.511 166.029 726.422 166.029 725.955 187.657 725.955 230.447L725.955 294.865 730.001 295.799C732.179 296.421 737.314 300.156 741.36 304.201 752.874 315.716 755.208 330.342 747.739 344.968 739.181 361.462 718.331 368.464 701.526 360.372L694.835 357.105 637.263 391.025C581.247 423.857 579.692 424.946 579.692 429.614 579.692 442.84 570.822 456.377 558.686 461.823 542.97 468.981 523.676 462.757 514.807 447.664 511.072 441.44 509.672 437.394 509.672 432.104L509.672 425.102 452.723 392.737 395.929 360.217 389.705 362.707C380.991 366.13 368.854 365.819 360.763 361.928L354.073 358.661 296.501 392.426C240.329 425.413 238.929 426.347 238.929 431.17 238.929 439.728 235.817 447.664 229.904 454.199 218.39 466.958 202.83 469.759 187.425 462.135ZM212.166 437.083C218.701 428.525 206.253 417.944 198.162 425.413 194.116 428.992 194.739 434.438 199.562 438.172 203.919 441.751 208.743 441.284 212.166 437.083ZM550.75 435.838C553.707 432.882 554.018 427.436 551.217 423.701 548.105 419.5 539.236 420.9 536.28 426.035 534.257 429.77 534.257 430.548 536.591 434.282 539.703 438.95 546.86 439.728 550.75 435.838ZM189.76 400.206C198.629 395.694 207.187 395.383 216.367 398.806 219.79 400.05 223.68 401.606 225.081 401.918 226.481 402.384 251.222 388.847 284.209 369.553L340.847 336.255 341.936 328.163C343.492 317.583 348.004 308.869 354.851 303.423L360.297 299.066 360.297 233.403 360.297 167.74 356.874 165.873C346.448 160.583 340.069 150.78 338.668 138.021L337.735 129.618 281.408 97.8762 224.925 66.1339 218.701 68.6233C210.143 72.0468 199.718 71.7357 190.849 68.0011L183.535 64.7336 125.653 98.6543 67.7698 132.419 67.7698 138.799C67.7698 148.602 60.9233 160.894 52.8321 165.873L46.1412 169.919 45.9856 234.804 45.9856 299.689 52.9877 304.512C61.7014 310.581 67.7698 320.539 68.859 331.275L69.7926 339.522 125.964 371.731C156.772 389.47 182.135 404.096 182.135 404.096 182.135 404.096 185.558 402.384 189.76 400.206ZM541.57 395.071C548.883 394.604 552.929 395.227 558.841 397.716L566.621 401.139 622.637 368.308C653.29 350.258 679.12 334.698 680.053 333.921 680.831 333.143 681.765 329.564 681.921 326.141 682.543 316.649 687.522 307.157 694.835 301.245L701.526 295.954 700.437 252.386C699.97 228.424 699.503 199.327 699.503 187.657L699.503 166.651 692.812 161.827C684.566 156.07 677.719 143.467 677.719 134.131L677.719 127.907 621.548 96.3204 565.377 64.7336 559.308 67.0675C551.061 70.4906 538.302 70.1795 530.211 66.445L523.676 63.4885 466.104 97.0981C409.31 130.241 408.532 130.863 408.532 135.687 408.532 147.357 399.975 161.516 389.861 166.807L385.97 168.829 386.437 232.625 386.749 296.421 391.416 298.288C397.952 301.089 408.066 311.514 410.088 317.738 411.022 320.695 411.955 326.763 412.111 331.275L412.422 339.367 467.504 370.953 522.587 402.384 527.41 398.961C530.678 396.627 535.034 395.383 541.57 395.071ZM41.3178 340.3C45.3635 336.255 45.2079 331.742 41.1623 327.696 37.8944 324.429 31.9819 324.584 27.7808 328.163 25.291 330.186 25.1354 339.056 27.6249 341.545 30.5813 344.501 37.8944 343.723 41.3178 340.3ZM384.259 335.165C387.215 331.12 387.215 330.497 385.037 326.607 381.925 320.85 373.989 320.072 370.566 325.051 367.143 329.719 367.454 333.454 371.344 337.344 375.39 341.389 380.213 340.611 384.259 335.165ZM724.71 333.609C726.733 330.497 726.111 325.051 723.465 322.562 719.887 318.827 712.574 319.45 709.773 323.495 706.349 328.319 706.661 330.497 711.018 334.854 714.441 338.277 715.53 338.433 719.264 337.033 721.598 336.255 724.088 334.543 724.71 333.609ZM38.6725 145.49C43.0292 142.066 43.6517 135.687 39.9172 131.952 35.8716 127.907 31.3594 127.751 27.3138 131.797 19.2226 139.888 29.6477 152.336 38.6725 145.49ZM378.968 142.689C380.68 140.977 382.08 138.021 382.08 136.154 382.08 127.907 370.566 123.861 365.898 130.552 362.63 135.22 362.786 138.332 366.521 142.377 370.566 146.579 374.923 146.735 378.968 142.689ZM720.665 137.087C722.687 128.84 716.93 122.772 709.617 125.573 702.148 128.374 701.682 138.488 708.839 142.222 713.507 144.556 719.42 141.911 720.665 137.087ZM210.143 45.2837C216.989 42.6384 215.9 30.0349 208.587 28.1677 199.407 25.8338 193.338 36.4144 200.029 43.1053 203.297 46.3729 205.786 46.8395 210.143 45.2837ZM552.929 40.3045C555.418 37.0369 555.263 33.6135 552.306 29.4124 549.194 24.7446 541.725 24.7446 538.613 29.4124 535.034 34.3916 535.502 37.8147 540.325 41.3936 544.682 44.9722 549.505 44.5056 552.929 40.3045Z" fill="#7D7D7D" fill-rule="evenodd" transform="matrix(0.872164 -0.489213 -0.489213 -0.872164 330.945 899.447)"/></g></svg>