<svg width="987" height="738" xmlns="http://www.w3.org/2000/svg" xmlns:xlink="http://www.w3.org/1999/xlink" xml:space="preserve" overflow="hidden"><defs><clipPath id="clip0"><rect x="1662" y="1308" width="987" height="738"/></clipPath></defs><g clip-path="url(#clip0)" transform="translate(-1662 -1308)"><path d="M187.425 462.135C176.689 456.533 168.909 444.707 168.909 433.66L168.909 426.658 128.92 403.473C106.825 390.559 81.618 376.088 72.9046 370.953L57.0333 361.773 51.1204 365.352C41.94 371.109 27.3138 370.642 17.0442 364.418 12.3764 361.462 7.7083 356.794 4.75187 352.126-4.7396 336.721 0.239633 314.159 14.8659 305.757L21.0898 302.178 21.0898 236.827 21.0898 171.475 13.7767 166.029C-4.89514 152.025-5.82877 126.195 11.9094 111.102 22.8015 101.611 37.5833 99.899 50.9649 106.278L56.4107 108.768 114.294 75.0032 172.021 41.2381 172.021 33.925C172.021 23.9665 179.179 11.8297 188.048 6.53937 212.166-7.4647 240.485 8.25108 241.263 35.9478L241.574 45.2837 296.345 76.7145 351.116 108.146 357.651 104.411C366.209 99.5879 379.746 99.2764 389.238 103.789L395.773 107.057 453.034 73.447 510.45 39.9934 511.383 31.4352C515.118-1.86293 558.375-12.4439 575.646 15.7198 579.381 21.6326 580.47 25.5223 580.936 33.6135L581.559 43.8831 636.174 75.4698C683.01 102.544 691.101 106.59 693.124 104.878 700.748 98.4987 716.308 97.2536 726.733 102.077 738.714 107.679 747.739 121.372 747.739 133.975 747.739 143.156 743.227 153.114 735.913 159.649 732.179 163.228 728.445 166.029 727.511 166.029 726.422 166.029 725.955 187.657 725.955 230.447L725.955 294.865 730.001 295.799C732.179 296.421 737.314 300.156 741.36 304.201 752.874 315.716 755.208 330.342 747.739 344.968 739.181 361.462 718.331 368.464 701.526 360.372L694.835 357.105 637.263 391.025C581.247 423.857 579.692 424.946 579.692 429.614 579.692 442.84 570.822 456.377 558.686 461.823 542.97 468.981 523.676 462.757 514.807 447.664 511.072 441.44 509.672 437.394 509.672 432.104L509.672 425.102 452.723 392.737 395.929 360.217 389.705 362.707C380.991 366.13 368.854 365.819 360.763 361.928L354.073 358.661 296.501 392.426C240.329 425.413 238.929 426.347 238.929 431.17 238.929 439.728 235.817 447.664 229.904 454.199 218.39 466.958 202.83 469.759 187.425 462.135ZM212.166 437.083C218.701 428.525 206.253 417.944 198.162 425.413 194.116 428.992 194.739 434.438 199.562 438.172 203.919 441.751 208.743 441.284 212.166 437.083ZM550.75 435.838C553.707 432.882 554.018 427.436 551.217 423.701 548.105 419.5 539.236 420.9 536.28 426.035 534.257 429.77 534.257 430.548 536.591 434.282 539.703 438.95 546.86 439.728 550.75 435.838ZM189.76 400.206C198.629 395.694 207.187 395.383 216.367 398.806 219.79 400.05 223.68 401.606 225.081 401.918 226.481 402.384 251.222 388.847 284.209 369.553L340.847 336.255 341.936 328.163C343.492 317.583 348.004 308.869 354.851 303.423L360.297 299.066 360.297 233.403 360.297 167.74 356.874 165.873C346.448 160.583 340.069 150.78 338.668 138.021L337.735 129.618 281.408 97.8762 224.925 66.1339 218.701 68.6233C210.143 72.0468 199.718 71.7357 190.849 68.0011L183.535 64.7336 125.653 98.6543 67.7698 132.419 67.7698 138.799C67.7698 148.602 60.9233 160.894 52.8321 165.873L46.1412 169.919 45.9856 234.804 45.9856 299.689 52.9877 304.512C61.7014 310.581 67.7698 320.539 68.859 331.275L69.7926 339.522 125.964 371.731C156.772 389.47 182.135 404.096 182.135 404.096 182.135 404.096 185.558 402.384 189.76 400.206ZM541.57 395.071C548.883 394.604 552.929 395.227 558.841 397.716L566.621 401.139 622.637 368.308C653.29 350.258 679.12 334.698 680.053 333.921 680.831 333.143 681.765 329.564 681.921 326.141 682.543 316.649 687.522 307.157 694.835 301.245L701.526 295.954 700.437 252.386C699.97 228.424 699.503 199.327 699.503 187.657L699.503 166.651 692.812 161.827C684.566 156.07 677.719 143.467 677.719 134.131L677.719 127.907 621.548 96.3204 565.377 64.7336 559.308 67.0675C551.061 70.4906 538.302 70.1795 530.211 66.445L523.676 63.4885 466.104 97.0981C409.31 130.241 408.532 130.863 408.532 135.687 408.532 147.357 399.975 161.516 389.861 166.807L385.97 168.829 386.437 232.625 386.749 296.421 391.416 298.288C397.952 301.089 408.066 311.514 410.088 317.738 411.022 320.695 411.955 326.763 412.111 331.275L412.422 339.367 467.504 370.953 522.587 402.384 527.41 398.961C530.678 396.627 535.034 395.383 541.57 395.071ZM41.3178 340.3C45.3635 336.255 45.2079 331.742 41.1623 327.696 37.8944 324.429 31.9819 324.584 27.7808 328.163 25.291 330.186 25.1354 339.056 27.6249 341.545 30.5813 344.501 37.8944 343.723 41.3178 340.3ZM384.259 335.165C387.215 331.12 387.215 330.497 385.037 326.607 381.925 320.85 373.989 320.072 370.566 325.051 367.143 329.719 367.454 333.454 371.344 337.344 375.39 341.389 380.213 340.611 384.259 335.165ZM724.71 333.609C726.733 330.497 726.111 325.051 723.465 322.562 719.887 318.827 712.574 319.45 709.773 323.495 706.349 328.319 706.661 330.497 711.018 334.854 714.441 338.277 715.53 338.433 719.264 337.033 721.598 336.255 724.088 334.543 724.71 333.609ZM38.6725 145.49C43.0292 142.066 43.6517 135.687 39.9172 131.952 35.8716 127.907 31.3594 127.751 27.3138 131.797 19.2226 139.888 29.6477 152.336 38.6725 145.49ZM378.968 142.689C380.68 140.977 382.08 138.021 382.08 136.154 382.08 127.907 370.566 123.861 365.898 130.552 362.63 135.22 362.786 138.332 366.521 142.377 370.566 146.579 374.923 146.735 378.968 142.689ZM720.665 137.087C722.687 128.84 716.93 122.772 709.617 125.573 702.148 128.374 701.682 138.488 708.839 142.222 713.507 144.556 719.42 141.911 720.665 137.087ZM210.143 45.2837C216.989 42.6384 215.9 30.0349 208.587 28.1677 199.407 25.8338 193.338 36.4144 200.029 43.1053 203.297 46.3729 205.786 46.8395 210.143 45.2837ZM552.929 40.3045C555.418 37.0369 555.263 33.6135 552.306 29.4124 549.194 24.7446 541.725 24.7446 538.613 29.4124 535.034 34.3916 535.502 37.8147 540.325 41.3936 544.682 44.9722 549.505 44.5056 552.929 40.3045Z" fill="#FFF" fill-rule="evenodd" transform="matrix(0.872164 -0.489213 -0.489213 -0.872164 1871.67 1989.8)"/><text font-family="Mateur,Mateur_MSFontService,sans-serif" font-weight="700" font-size="275" transform="matrix(1 0 0 1 1827.95 1783)">R</text><text font-family="Mateur,Mateur_MSFontService,sans-serif" font-weight="700" font-size="275" transform="matrix(1 0 0 1 2105.63 1623)">G</text><path d="M298.335 156.114C284.92 153.513 272.154 143.327 267.934 131.84 264.797 123.387 265.013 110.383 268.475 103.447L270.747 98.7876 216.329 57.0658 161.91 15.344 83.5819 15.344C5.90308 15.344 5.14581 15.344 2.3329 13.0686-1.56187 10.034-1.56187 4.39898 2.3329 1.36473 5.14581-0.91105 5.90308-0.91105 86.8275-0.91105L168.51-0.91105 209.729 30.7324C232.448 48.1798 258.089 67.7941 266.744 74.5129L282.432 86.542 287.841 84.0495C309.479 74.1879 334.794 83.0742 344.315 103.989 348.426 112.767 348.426 123.929 344.423 132.598 338.689 144.952 327.438 153.622 313.806 156.114 306.666 157.414 304.935 157.414 298.335 156.114ZM319.973 135.957C332.847 126.746 332.847 109.841 319.973 100.521 315.97 97.7038 314.131 97.1618 307.531 96.8368 300.932 96.5118 298.984 96.8368 294.873 99.1126 277.996 108.107 279.619 132.165 297.578 138.667 299.417 139.425 304.069 139.751 308.072 139.642 314.239 139.425 315.97 138.884 319.973 135.957Z" fill-rule="evenodd" transform="matrix(1 0 0 -1 2186 1760)"/><path d="M429.18 92.238C418.459 89.2028 407.412 79.8801 403.189 70.2327L401.023 65.463 327.165 65.463 253.308 65.463 219.628 41.0729 185.839 16.6826 97.0368 16.6826C38.124 16.6826 7.15116 16.2489 5.202 15.5985-2.05399 12.7801-2.92021 4.32502 3.79415 0.964441 6.39314-0.444739 20.255-0.661561 99.2027-0.661561L191.579-0.661561 225.909 24.2707 260.238 49.0944 329.981 48.9861 399.832 48.9861 402.214 42.4821C406.221 31.4252 415.21 23.1866 428.097 18.8505 435.894 16.2489 442.825 16.1407 451.272 18.3086 464.484 21.7774 472.715 28.4982 478.346 40.3139 481.27 46.4928 481.487 47.7938 481.053 56.5742 480.404 72.2924 473.689 82.1566 459.178 89.3111 453.005 92.3463 450.406 92.9967 443.042 93.3221 437.952 93.4304 431.996 92.9967 429.18 92.238ZM451.597 74.8939C459.394 70.8832 463.943 63.6201 463.943 55.1651 463.943 48.4439 461.885 43.9995 456.579 39.2301 444.774 28.4982 426.039 32.1839 419.433 46.4928 412.502 61.5605 424.956 78.2541 442.392 76.9535 445.749 76.7367 449.864 75.7612 451.597 74.8939Z" fill-rule="evenodd" transform="matrix(1 0 0 -1 2167 1801)"/><path d="M320.411 73.5152C308.188 69.5296 298.345 60.4805 294.776 49.493L293.37 45.3994 148.754 45.3994 4.0305 45.3994 1.75919 42.9217C-1.59408 39.367-1.37762 34.3036 2.19177 31.5029L5.11212 29.2406 149.187 29.2406 293.153 29.2406 295.641 23.4236C299.319 14.5904 305.376 8.45005 315.002 3.71007 322.79-0.168032 323.764-0.383501 333.499-0.383501 342.909-0.383501 344.531-0.0601308 351.021 2.9561 360.54 7.4806 366.38 12.9746 370.491 21.1614 385.526 51.6473 354.374 84.2877 320.411 73.5152ZM346.154 55.633C353.401 51.4319 356.862 45.507 356.862 37.2123 356.862 28.3791 353.076 22.5617 344.531 18.253 337.068 14.4825 330.686 14.3749 323.331 17.8221 316.949 20.7304 315.002 22.7772 312.082 29.2406 309.162 35.7043 309.27 39.5821 312.623 46.2613 318.788 58.6492 333.823 62.8507 346.154 55.633Z" fill-rule="evenodd" transform="matrix(1 0 0 -1 2145 1870)"/><path d="M6.53174 107.125C4.14905 106.689 1.65747 105.381 0.791095 104.292-1.26696 101.459-0.941988 96.8826 1.44104 93.9406L3.4991 91.3256 49.2082 90.9985 95.0255 90.6718 109.756 76.9429C117.88 69.4248 127.737 59.9452 131.636 56.0226 135.535 52.1 143.334 44.5819 149.075 39.3516L159.365 29.7633 205.832 29.7633 252.299 29.7633 255.224 23.3345C269.63-7.82796 315.664-7.93676 330.503 23.2257 332.777 28.0197 333.427 30.853 333.427 37.3905 333.536 49.2671 330.936 56.6764 323.571 64.6304 316.639 72.2577 309.165 76.1803 298.766 77.5967 279.703 80.3208 260.098 69.2068 254.357 52.4267L252.624 47.1968 208.973 47.1968 165.322 47.1968 161.639 51.3374C158.498 54.8241 143.009 69.4248 107.157 102.766L101.741 107.779 56.2484 107.887C31.2278 107.997 8.80656 107.669 6.53174 107.125ZM302.449 58.0929C308.515 55.3688 313.931 48.7224 315.664 41.6399 317.505 34.2305 315.556 28.3468 309.273 22.0272 305.157 17.8867 303.208 16.6882 298.117 15.7073 286.744 13.3103 276.67 17.9955 271.796 28.1289 267.247 37.4993 268.872 45.4533 277.212 54.0615 283.603 60.4899 293.351 62.0155 302.449 58.0929Z" fill-rule="evenodd" transform="matrix(1 0 0 -1 2127 1969)"/></g></svg>